<svg xmlns="http://www.w3.org/2000/svg" width="600" height="700" viewBox="0 0 600 700"><rect width="600" height="700" rx="24" fill="#303c38"/><circle cx="300" cy="330" r="220" fill="#8faf9c" opacity=".18"/><path d="M162 312 120 100Q230 130 258 247M342 247Q390 130 480 100L438 312" fill="#d7a15b" stroke="#edc496" stroke-width="10"/><path d="m170 270-20-120 80 110m140 0 80-110-20 120" fill="#bc7e74"/><ellipse cx="300" cy="376" rx="170" ry="156" fill="#d7a15b"/><path d="M300 240c-24 90-50 126-75 151-70 60-30 132 75 132s145-72 75-132c-25-25-51-61-75-151" fill="#f6e9d7"/><ellipse cx="223" cy="351" rx="14" ry="18" fill="#292c2a"/><ellipse cx="377" cy="351" rx="14" ry="18" fill="#292c2a"/><path d="M274 415q26-17 52 0l-26 25z" fill="#292c2a"/><path d="M300 440v25m-35-9q35 28 70 0" fill="none" stroke="#292c2a" stroke-width="6" stroke-linecap="round"/><path d="M285 475q15 9 30 0v15q-15 30-30 0" fill="#cd8880"/><text x="300" y="610" text-anchor="middle" fill="#f6e9d7" font-family="Georgia,serif" font-size="48">Meet Nico.</text><text x="300" y="660" text-anchor="middle" fill="#c1d3c6" font-family="sans-serif" font-size="14" letter-spacing="3">ILLUSTRATION PLACEHOLDER</text></svg>
